# File units = meters
mtllib assembled_interlocking_tiles.mtl
g Part 4
v 0.12 -0.207846 0.06 
v 0.06 -0.311769 0.06 
v 0.06 -0.311769 0.03 
v 0.12 -0.207846 0.03 
v 0.24 -0.207846 0.03 
v 0.24 -0.207846 0.06 
v 0.3 -0.103923 0.06 
v 0.3 -0.103923 0.03 
v 0.24 -2.77556e-17 0.03 
v 0.24 -2.77556e-17 0.06 
v 0.125774 -2.77556e-17 0.06 
v 0.125774 -4.16334e-17 0.03 
v 0.0628868 -0.108923 0.06 
v 0.0628868 -0.108923 0.03 
v -0.0628868 -0.108923 0.06 
v -0.0628868 -0.108923 0.03 
v -0.125774 0 0.03 
v -0.125774 9.71445e-17 0.06 
v -0.24 0 0.06 
v -0.24 0 0.03 
v -0.3 -0.103923 0.03 
v -0.3 -0.103923 0.06 
v -0.24 -0.207846 0.06 
v -0.24 -0.207846 0.03 
v -0.12 -0.207846 0.06 
v -0.06 -0.311769 0.06 
v -0.12 -0.207846 0.03 
v -0.06 -0.311769 0.03 
v 0.118845 -0.189846 0.03 
v 0.0750111 -0.113923 0.03 
v 0.114226 -0.197846 0.03 
v 0.0657735 -0.113923 0.03 
v 0.118845 -0.189846 0.031 
v 0.0750111 -0.113923 0.031 
v 0.114226 -0.197846 0.031 
v 0.0657735 -0.113923 0.031 
vn 0.866025 -0.5 0 
vn 0 -1 0 
vn 0.866025 0.5 0 
vn 0 1 0 
vn -0.866025 0.5 0 
vn 0.866025 0.5 0 
vn 0 1 0 
vn -0.866025 0.5 0 
vn -0.866025 -0.5 0 
vn 0 0 1 
vn 0 -1 0 
vn -0.866025 -0.5 0 
vn 0 0 -1 
vn -0.866025 0.5 0 
vn 0.866025 0.5 0 
vn 0 -1 0 
vn 0 0 -1 
usemtl 0.647059_0.647059_0.647059_0.000000_0.000000
o mesh0
f 1//1 2//1 3//1 
f 3//1 4//1 1//1 
o mesh1
f 1//2 4//2 5//2 
f 5//2 6//2 1//2 
o mesh2
f 7//1 6//1 5//1 
f 5//1 8//1 7//1 
o mesh3
f 7//3 8//3 9//3 
f 9//3 10//3 7//3 
o mesh4
f 11//4 10//4 9//4 
f 9//4 12//4 11//4 
o mesh5
f 13//5 11//5 12//5 
f 12//5 14//5 13//5 
o mesh6
f 15//4 13//4 14//4 
f 14//4 16//4 15//4 
o mesh7
f 15//6 16//6 17//6 
f 17//6 18//6 15//6 
o mesh8
f 19//7 18//7 17//7 
f 17//7 20//7 19//7 
o mesh9
f 19//8 20//8 21//8 
f 21//8 22//8 19//8 
o mesh10
f 23//9 22//9 21//9 
f 21//9 24//9 23//9 
o mesh11
f 15//10 18//10 19//10 
f 15//10 22//10 23//10 
f 25//10 1//10 13//10 
f 1//10 25//10 26//10 
f 13//10 1//10 6//10 
f 13//10 7//10 10//10 
f 23//10 25//10 15//10 
f 26//10 2//10 1//10 
f 10//10 11//10 13//10 
f 13//10 15//10 25//10 
f 19//10 22//10 15//10 
f 6//10 7//10 13//10 
o mesh12
f 23//11 24//11 27//11 
f 27//11 25//11 23//11 
o mesh13
f 26//12 25//12 27//12 
f 27//12 28//12 26//12 
o mesh14
f 26//11 28//11 3//11 
f 3//11 2//11 26//11 
o mesh15
f 9//13 29//13 30//13 
f 29//13 9//13 8//13 
f 8//13 5//13 29//13 
f 5//13 4//13 31//13 
f 30//13 32//13 14//13 
f 31//13 29//13 5//13 
f 16//13 27//13 24//13 
f 21//13 20//13 17//13 
f 31//13 3//13 28//13 
f 27//13 16//13 32//13 
f 32//13 16//13 14//13 
f 30//13 12//13 9//13 
f 17//13 16//13 21//13 
f 32//13 31//13 27//13 
f 4//13 3//13 31//13 
f 28//13 27//13 31//13 
f 24//13 21//13 16//13 
f 14//13 12//13 30//13 
o mesh16
f 33//12 34//12 30//12 
f 30//12 29//12 33//12 
o mesh17
f 35//14 33//14 29//14 
f 29//14 31//14 35//14 
o mesh18
f 36//15 35//15 31//15 
f 31//15 32//15 36//15 
o mesh19
f 30//16 34//16 36//16 
f 36//16 32//16 30//16 
o mesh20
f 36//17 34//17 33//17 
f 33//17 35//17 36//17 
g Part 3
v 0.0438342 -0.319769 0.03 
v -0.0438342 -0.319769 0.03 
v -0.0438342 -0.319769 0.002 
v 0.0438342 -0.319769 0.002 
v 0.118845 -0.189846 0.03 
v 0.118845 -0.189846 0.002 
v 0.0778979 -0.118923 0.03 
v -0.0778979 -0.118923 0.03 
v -0.118845 -0.189846 0.03 
v 0.0778979 -0.118923 0.002 
v -0.0778979 -0.118923 0.002 
v -0.118845 -0.189846 0.002 
v 0.0755885 -0.118923 3.46945e-18 
v -0.0755885 -0.118923 -8.67362e-19 
v 0.0426795 -0.317769 0 
v 0.116536 -0.189846 0 
v -0.0426795 -0.317769 0 
v -0.116536 -0.189846 0 
vn 1.26639e-15 -1 0 
vn 0.866025 -0.5 0 
vn 0 0 1 
vn 0.866025 0.5 0 
vn -0.866025 0.5 0 
vn 0 1 0 
vn 0.612372 -0.353553 -0.707107 
vn 0.612372 0.353553 -0.707107 
vn 0 0 -1 
vn -0.866025 -0.5 0 
vn -0.612372 -0.353553 -0.707107 
vn -0.612372 0.353553 -0.707107 
vn 8.95472e-16 -0.707107 -0.707107 
usemtl 0.231373_0.380392_0.705882_0.000000_0.000000
o mesh21
f 37//18 38//18 39//18 
f 39//18 40//18 37//18 
o mesh22
f 41//19 37//19 40//19 
f 40//19 42//19 41//19 
o mesh23
f 38//20 37//20 41//20 
f 38//20 43//20 44//20 
f 44//20 45//20 38//20 
f 41//20 43//20 38//20 
o mesh24
f 43//21 41//21 42//21 
f 42//21 46//21 43//21 
o mesh25
f 45//22 44//22 47//22 
f 47//22 48//22 45//22 
o mesh26
f 44//23 43//23 49//23 
f 49//23 50//23 44//23 
f 43//23 46//23 49//23 
f 50//23 47//23 44//23 
o mesh27
f 42//24 40//24 51//24 
f 51//24 52//24 42//24 
o mesh28
f 46//25 42//25 52//25 
f 52//25 49//25 46//25 
o mesh29
f 49//26 53//26 54//26 
f 49//26 52//26 51//26 
f 51//26 53//26 49//26 
f 54//26 50//26 49//26 
o mesh30
f 38//27 45//27 48//27 
f 48//27 39//27 38//27 
o mesh31
f 39//28 48//28 54//28 
f 54//28 53//28 39//28 
o mesh32
f 54//29 48//29 47//29 
f 47//29 50//29 54//29 
o mesh33
f 39//30 53//30 51//30 
f 51//30 40//30 39//30 
g Part 2
v 0.298845 -0.085923 0.03 
v 0.223834 -0.215846 0.03 
v 0.223834 -0.215846 0.002 
v 0.298845 -0.085923 0.002 
v 0.255011 -0.01 0.03 
v 0.255011 -0.01 0.002 
v 0.136166 -0.215846 0.03 
v 0.110762 -0.01 0.03 
v 0.0640415 -0.090923 0.03 
v 0.110762 -0.01 0.002 
v 0.0640415 -0.090923 0.002 
v 0.136166 -0.215846 0.002 
v 0.109608 -0.012 1.73472e-18 
v 0.0651962 -0.088923 8.67362e-19 
v 0.296536 -0.085923 0 
v 0.253856 -0.012 0 
v 0.222679 -0.213846 0 
v 0.137321 -0.213846 0 
vn 0.866025 -0.5 0 
vn 0.866025 0.5 0 
vn 0 0 1 
vn -1.27194e-16 1 0 
vn -0.866025 -0.5 0 
vn -0.866025 0.5 0 
vn 0.612372 0.353553 -0.707107 
vn -8.99399e-17 0.707107 -0.707107 
vn 0 0 -1 
vn 0 -1 0 
vn 0.612372 -0.353553 -0.707107 
vn 0 -0.707107 -0.707107 
vn -0.612372 -0.353553 -0.707107 
usemtl 0.647059_0.647059_0.647059_0.000000_0.000000
o mesh34
f 55//31 56//31 57//31 
f 57//31 58//31 55//31 
o mesh35
f 59//32 55//32 58//32 
f 58//32 60//32 59//32 
o mesh36
f 61//33 59//33 62//33 
f 59//33 61//33 56//33 
f 56//33 55//33 59//33 
f 62//33 63//33 61//33 
o mesh37
f 62//34 59//34 60//34 
f 60//34 64//34 62//34 
o mesh38
f 61//35 63//35 65//35 
f 65//35 66//35 61//35 
o mesh39
f 62//36 67//36 68//36 
f 62//36 64//36 67//36 
f 68//36 63//36 62//36 
f 68//36 65//36 63//36 
o mesh40
f 60//37 58//37 69//37 
f 69//37 70//37 60//37 
o mesh41
f 64//38 60//38 70//38 
f 70//38 67//38 64//38 
o mesh42
f 70//39 69//39 71//39 
f 70//39 72//39 68//39 
f 68//39 67//39 70//39 
f 71//39 72//39 70//39 
o mesh43
f 56//40 61//40 66//40 
f 66//40 57//40 56//40 
o mesh44
f 58//41 57//41 71//41 
f 71//41 69//41 58//41 
o mesh45
f 57//42 66//42 72//42 
f 72//42 71//42 57//42 
o mesh46
f 65//43 68//43 72//43 
f 72//43 66//43 65//43 
g Part 1
v -0.255011 -0.01 0.002 
v -0.255011 -0.01 0.03 
v -0.110762 -0.01 0.03 
v -0.110762 -0.01 0.002 
v -0.298845 -0.085923 0.03 
v -0.298845 -0.085923 0.002 
v -0.253856 -0.012 0 
v -0.109608 -0.012 -3.46945e-18 
v -0.296536 -0.085923 0 
v -0.223834 -0.215846 0.03 
v -0.223834 -0.215846 0.002 
v -0.136166 -0.215846 0.03 
v -0.0640415 -0.090923 0.03 
v -0.0651962 -0.088923 -1.9082e-17 
v -0.0640415 -0.090923 0.002 
v -0.136166 -0.215846 0.002 
v -0.137321 -0.213846 0 
v -0.222679 -0.213846 0 
vn 0 1 0 
vn -0.866025 0.5 0 
vn 0 0.707107 -0.707107 
vn -0.612372 0.353553 -0.707107 
vn -0.866025 -0.5 0 
vn 0 0 1 
vn 0.866025 0.5 0 
vn 0.866025 -0.5 0 
vn 0 0 -1 
vn 0 -1 0 
vn -0.612372 -0.353553 -0.707107 
vn 0 -0.707107 -0.707107 
vn 0.612372 -0.353553 -0.707107 
usemtl 0.615686_0.811765_0.929412_0.000000_0.000000
o mesh47
f 73//44 74//44 75//44 
f 75//44 76//44 73//44 
o mesh48
f 77//45 74//45 73//45 
f 73//45 78//45 77//45 
o mesh49
f 79//46 73//46 76//46 
f 76//46 80//46 79//46 
o mesh50
f 78//47 73//47 79//47 
f 79//47 81//47 78//47 
o mesh51
f 82//48 77//48 78//48 
f 78//48 83//48 82//48 
o mesh52
f 82//49 75//49 74//49 
f 82//49 84//49 85//49 
f 85//49 75//49 82//49 
f 74//49 77//49 82//49 
o mesh53
f 75//50 85//50 86//50 
f 86//50 80//50 75//50 
f 85//50 87//50 86//50 
f 80//50 76//50 75//50 
o mesh54
f 85//51 84//51 88//51 
f 88//51 87//51 85//51 
o mesh55
f 81//52 79//52 80//52 
f 86//52 89//52 90//52 
f 90//52 81//52 86//52 
f 80//52 86//52 81//52 
o mesh56
f 84//53 82//53 83//53 
f 83//53 88//53 84//53 
o mesh57
f 78//54 81//54 90//54 
f 90//54 83//54 78//54 
o mesh58
f 83//55 90//55 89//55 
f 89//55 88//55 83//55 
o mesh59
f 89//56 86//56 87//56 
f 87//56 88//56 89//56 
