# File units = meters
mtllib hand_with_interlocking_tile_top.mtl
g Part 1
v -0.12 0 6.93889e-18 
v -0.06 0 0.103923 
v -0.06 0.029 0.103923 
v -0.12 0.029 6.93889e-18 
v -0.06 0 -0.103923 
v -0.06 0.029 -0.103923 
v 0.06 0 -0.103923 
v 0.06 0.029 -0.103923 
v 0.06 0 0.103923 
v 0.12 0 1.38778e-17 
v 0.06 0.029 0.103923 
v 0.12 0.029 1.38778e-17 
vn -0.866025 0 0.5 
vn -0.866025 0 -0.5 
vn -2.31296e-16 0 -1 
vn 0 -1 0 
vn 0 1 0 
vn 0.866025 0 -0.5 
vn 0.866025 0 0.5 
vn 0 0 1 
usemtl 0.615686_0.811765_0.929412_0.000000_0.000000
o mesh0
f 1//1 2//1 3//1 
f 3//1 4//1 1//1 
o mesh1
f 5//2 1//2 4//2 
f 4//2 6//2 5//2 
o mesh2
f 7//3 5//3 6//3 
f 6//3 8//3 7//3 
o mesh3
f 5//4 9//4 2//4 
f 9//4 5//4 7//4 
f 7//4 10//4 9//4 
f 2//4 1//4 5//4 
o mesh4
f 3//5 8//5 6//5 
f 8//5 3//5 11//5 
f 11//5 12//5 8//5 
f 6//5 4//5 3//5 
o mesh5
f 10//6 7//6 8//6 
f 8//6 12//6 10//6 
o mesh6
f 9//7 10//7 12//7 
f 12//7 11//7 9//7 
o mesh7
f 9//8 11//8 3//8 
f 3//8 2//8 9//8 
